<svg width="509" height="133" viewBox="0 0 509 133" fill="none" xmlns="http://www.w3.org/2000/svg">
<g filter="url(#filter0_d_417_14458)">
<rect x="2" y="25.8465" width="11.9291" height="75.5512" fill="#F5A200"/>
<rect x="13.9291" y="13.9173" width="11.9291" height="99.4094" fill="#F5A200"/>
<rect width="457.283" height="127.244" transform="translate(25.8583)" fill="#F5A200"/>
<path d="M69.5984 23.5057C72.415 23.837 74.776 24.0855 76.6813 24.2512C78.6695 24.3341 80.2849 24.4583 81.5276 24.624C83.0187 24.7897 84.1785 24.8725 85.0069 24.8725C85.9181 24.9554 87.285 24.914 89.1075 24.7483C90.6815 24.5826 92.794 24.3755 95.4449 24.127C98.1786 23.8784 101.658 23.5057 105.883 23.0086C103.978 24.6654 102.445 26.2808 101.285 27.8548C100.208 29.346 99.3798 30.6714 98.7999 31.8312C98.0544 33.2395 97.5988 34.565 97.4331 35.8076C97.1017 37.7958 96.8118 40.5295 96.5632 44.0089C96.3976 47.4053 96.2319 51.1332 96.0662 55.1924C95.9005 59.2516 95.8177 63.4351 95.8177 67.7429C95.8177 72.0506 95.8591 76.1512 95.9419 80.0448C96.1076 83.8555 96.3561 87.252 96.6875 90.2342C97.1017 93.2165 97.5988 95.3704 98.1786 96.6959C99.0071 98.187 99.8769 99.6781 100.788 101.169C101.617 102.412 102.611 103.696 103.77 105.021C104.93 106.347 106.256 107.424 107.747 108.252C102.859 108.004 98.9656 107.879 96.0662 107.879H91.5928C90.2673 107.879 88.5691 107.962 86.498 108.128C84.7584 108.294 82.5631 108.459 79.9122 108.625C77.2612 108.791 74.0718 109.039 70.344 109.371C72.2493 107.3 73.7405 105.311 74.8174 103.406C75.8944 101.501 76.7642 99.8438 77.4269 98.4355C78.1725 96.7787 78.6695 95.2047 78.9181 93.7136C79.2494 91.5597 79.4979 88.9088 79.6636 85.7608C79.9122 82.53 80.0778 79.0921 80.1607 75.4471C80.2435 71.7192 80.2435 67.95 80.1607 64.1393C80.1607 60.2457 80.0778 56.5179 79.9122 52.9557C79.7465 49.3935 79.4979 46.1627 79.1666 43.2633C78.9181 40.3638 78.5867 38.0443 78.1725 36.3046C77.924 35.2277 77.4269 34.0265 76.6813 32.701C76.0186 31.5412 75.1074 30.2158 73.9476 28.7246C72.8707 27.1507 71.4209 25.411 69.5984 23.5057ZM114.084 95.4532C114.664 92.7195 115.078 90.3171 115.327 88.2461C115.658 86.0922 115.907 84.3111 116.072 82.9028C116.238 81.246 116.321 79.8377 116.321 78.6779C116.238 77.2696 116.155 75.6128 116.072 73.7074C116.072 71.7192 115.989 69.7725 115.824 67.8671C115.741 65.8789 115.617 64.1393 115.451 62.6481C115.285 61.0741 115.078 59.9558 114.83 59.2931C114.498 58.6303 114.043 57.9262 113.463 57.1806C112.303 55.7723 110.605 54.4054 108.368 53.08C110.273 52.6658 111.889 52.3344 113.214 52.0859C114.623 51.7545 115.782 51.4646 116.694 51.216C117.688 50.8847 118.558 50.5947 119.303 50.3462C119.966 50.0977 120.753 49.8492 121.664 49.6006C122.41 49.4349 123.321 49.2278 124.398 48.9793C125.475 48.7308 126.717 48.4409 128.126 48.1095L127.753 59.4173C130.404 56.2693 133.096 53.9084 135.83 52.3344C138.564 50.7604 141.132 49.6421 143.534 48.9793C146.268 48.1509 148.96 47.7367 151.611 47.7367C154.925 47.9024 157.99 48.4409 160.807 49.3521C163.706 50.2634 166.191 51.3403 168.262 52.5829C170.416 53.7427 172.156 54.9853 173.481 56.3108C174.807 57.6362 175.594 58.796 175.842 59.7901C176.836 63.0209 177.085 66.0032 176.588 68.737C176.091 71.3879 175.428 73.9974 174.6 76.5654C173.854 79.0507 173.191 81.5359 172.611 84.0212C172.114 86.5064 172.322 89.1987 173.233 92.0982C173.564 92.8437 173.896 93.5893 174.227 94.3349C174.558 94.9976 174.972 95.6603 175.469 96.3231C175.967 96.9858 176.546 97.5243 177.209 97.9385C176.298 97.8556 175.387 97.8142 174.475 97.8142C173.564 97.7314 172.736 97.6485 171.99 97.5657C171.079 97.4829 170.25 97.4 169.505 97.3172C168.677 97.2343 167.558 97.1929 166.15 97.1929C163.747 97.1929 160.02 97.3172 154.966 97.5657C155.712 95.826 156.292 94.3763 156.706 93.2165C157.203 91.9739 157.617 90.9798 157.949 90.2342C158.28 89.323 158.528 88.6188 158.694 88.1218C159.688 85.7194 160.268 82.9856 160.434 79.9205C160.682 76.8554 160.475 73.7488 159.812 70.6009C159.564 69.5239 159.15 68.2399 158.57 66.7488C157.99 65.2576 157.203 63.8079 156.209 62.3996C155.298 60.9913 154.179 59.7901 152.854 58.796C151.611 57.8019 150.161 57.222 148.505 57.0563C146.848 56.8907 144.984 57.3049 142.913 58.299C140.925 59.2931 138.771 61.1156 136.451 63.7665C134.712 66.0032 133.345 68.737 132.351 71.9678C131.439 74.7015 130.818 78.1394 130.487 82.2815C130.155 86.3407 130.652 91.1041 131.978 96.5716C130.818 96.4059 129.741 96.3231 128.747 96.3231C127.753 96.2402 126.925 96.1574 126.262 96.0745C125.433 95.9917 124.688 95.9089 124.025 95.826C123.28 95.826 122.451 95.7846 121.54 95.7018C120.711 95.7018 119.676 95.7018 118.433 95.7018C117.191 95.6189 115.741 95.5361 114.084 95.4532ZM184.789 53.577L207.653 53.8255C206.328 58.8788 205.334 63.1866 204.671 66.7488C204.091 70.3109 203.718 73.2932 203.553 75.6956C203.221 78.4294 203.138 80.7489 203.304 82.6543C203.553 84.3939 203.967 86.2579 204.547 88.2461C205.044 89.9029 205.789 91.8082 206.783 93.9621C207.778 96.116 209.103 98.2698 210.76 100.424C209.766 100.092 208.689 99.8438 207.529 99.6781C206.369 99.5125 205.292 99.3882 204.298 99.3054C203.138 99.2225 201.979 99.2225 200.819 99.3054C199.659 99.3882 198.375 99.5125 196.967 99.6781C195.807 99.8438 194.399 100.051 192.742 100.299C191.085 100.548 189.345 100.879 187.523 101.294C188.765 97.5657 189.718 94.3349 190.381 91.6011C191.126 88.8674 191.665 86.5892 191.996 84.7667C192.328 82.6129 192.535 80.8732 192.618 79.5477C192.618 77.8909 192.618 76.027 192.618 73.9559C192.618 71.8021 192.618 69.731 192.618 67.7429C192.618 65.7547 192.576 64.015 192.493 62.5239C192.411 60.9499 192.245 59.9558 191.996 59.5416L190.754 58.299C190.257 57.8848 189.511 57.3049 188.517 56.5593C187.606 55.7309 186.363 54.7368 184.789 53.577ZM193.612 34.4407C195.351 33.5294 197.091 33.2809 198.831 33.6951C200.653 34.1093 202.062 34.8963 203.056 36.0561C204.05 37.2159 204.381 38.5828 204.05 40.1567C203.801 41.7307 202.476 43.2633 200.073 44.7544C197.671 46.1627 195.558 46.6598 193.736 46.2456C191.913 45.8314 190.629 44.9615 189.884 43.6361C189.138 42.3106 189.014 40.778 189.511 39.0384C190.008 37.2159 191.375 35.6833 193.612 34.4407ZM284.696 65.0091C283.702 64.8434 282.459 64.7192 280.968 64.6363C279.559 64.5535 278.193 64.512 276.867 64.512C275.376 64.512 273.802 64.5535 272.145 64.6363C270.406 64.7192 268.666 64.802 266.926 64.8848C265.435 64.9677 263.737 65.0919 261.831 65.2576C260.009 65.3405 258.228 65.4647 256.488 65.6304C257.151 65.299 257.731 64.8434 258.228 64.2635C258.808 63.6836 259.305 63.1037 259.719 62.5239C260.133 61.8611 260.506 61.157 260.837 60.4114C261.252 59.1688 261.21 57.6776 260.713 55.938C260.216 54.1155 259.305 52.4587 257.979 50.9675C256.737 49.4764 255.121 48.3166 253.133 47.4882C251.228 46.5769 249.115 46.3698 246.796 46.8669C244.311 47.4468 242.074 48.3166 240.086 49.4764C238.18 50.6361 236.565 52.2516 235.239 54.3226C233.997 56.3108 233.086 58.796 232.506 61.7783C232.009 64.6777 231.884 68.1571 232.133 72.2163C232.464 77.2696 233.293 81.2874 234.618 84.2697C235.944 87.252 237.559 89.4887 239.464 90.9798C241.37 92.471 243.441 93.3822 245.677 93.7136C247.997 93.9621 250.275 93.9621 252.512 93.7136C254.086 93.3822 255.536 92.6781 256.861 91.6011C257.938 90.6899 258.932 89.3644 259.843 87.6247C260.755 85.8851 261.169 83.4827 261.086 80.4176L276.246 79.7963C274.506 84.6839 272.394 88.5774 269.908 91.4769C267.423 94.2935 265.021 96.4888 262.701 98.0627C259.968 99.8852 257.234 101.128 254.5 101.791C251.104 102.37 248.08 102.619 245.429 102.536C242.778 102.37 240.376 101.956 238.222 101.294C236.068 100.631 234.08 99.8024 232.257 98.8083C230.435 97.8142 228.695 96.7373 227.038 95.5775C225.961 94.8319 224.76 93.5893 223.435 91.8496C222.109 90.11 220.866 88.039 219.707 85.6366C218.547 83.1513 217.594 80.4176 216.849 77.4353C216.103 74.453 215.813 71.3879 215.979 68.2399C216.145 65.0091 216.89 61.7783 218.216 58.5475C219.541 55.3167 221.653 52.2101 224.553 49.2278C228.943 44.7544 233.624 41.855 238.594 40.5295C243.648 39.1212 248.411 38.7484 252.885 39.4112C257.358 39.9911 261.334 41.2751 264.814 43.2633C268.293 45.2515 270.737 47.4053 272.145 49.7249C273.553 52.0444 274.589 53.8255 275.252 55.0682C275.997 56.2279 276.536 57.1392 276.867 57.8019C277.281 58.3818 277.613 58.8374 277.861 59.1688C278.193 59.4173 278.648 59.7901 279.228 60.2871C279.642 60.7014 280.139 61.157 280.719 61.654C281.216 62.0682 281.796 62.5653 282.459 63.1452C283.122 63.7251 283.867 64.3464 284.696 65.0091ZM282.832 53.577L305.696 53.8255C304.37 58.8788 303.376 63.1866 302.714 66.7488C302.134 70.3109 301.761 73.2932 301.595 75.6956C301.264 78.4294 301.181 80.7489 301.347 82.6543C301.595 84.3939 302.009 86.2579 302.589 88.2461C303.086 89.9029 303.832 91.8082 304.826 93.9621C305.82 96.116 307.146 98.2698 308.802 100.424C307.808 100.092 306.731 99.8438 305.572 99.6781C304.412 99.5125 303.335 99.3882 302.341 99.3054C301.181 99.2225 300.021 99.2225 298.861 99.3054C297.702 99.3882 296.418 99.5125 295.009 99.6781C293.85 99.8438 292.441 100.051 290.784 100.299C289.128 100.548 287.388 100.879 285.565 101.294C286.808 97.5657 287.761 94.3349 288.423 91.6011C289.169 88.8674 289.708 86.5892 290.039 84.7667C290.37 82.6129 290.577 80.8732 290.66 79.5477C290.66 77.8909 290.66 76.027 290.66 73.9559C290.66 71.8021 290.66 69.731 290.66 67.7429C290.66 65.7547 290.619 64.015 290.536 62.5239C290.453 60.9499 290.287 59.9558 290.039 59.5416L288.796 58.299C288.299 57.8848 287.554 57.3049 286.56 56.5593C285.648 55.7309 284.406 54.7368 282.832 53.577ZM291.654 34.4407C293.394 33.5294 295.134 33.2809 296.873 33.6951C298.696 34.1093 300.104 34.8963 301.098 36.0561C302.092 37.2159 302.424 38.5828 302.092 40.1567C301.844 41.7307 300.518 43.2633 298.116 44.7544C295.713 46.1627 293.601 46.6598 291.779 46.2456C289.956 45.8314 288.672 44.9615 287.926 43.6361C287.181 42.3106 287.057 40.778 287.554 39.0384C288.051 37.2159 289.418 35.6833 291.654 34.4407ZM322.595 58.796C323.01 58.299 323.258 57.3877 323.341 56.0622C323.507 54.6539 323.838 53.08 324.335 51.3403C324.915 49.6006 325.868 47.7781 327.193 45.8728C328.519 43.9674 330.672 42.1863 333.655 40.5295C336.554 38.8727 339.371 37.8786 342.105 37.5472C344.838 37.2159 347.448 37.3401 349.933 37.92C352.418 38.4999 354.738 39.4112 356.892 40.6538C359.128 41.8964 361.158 43.2633 362.981 44.7544C364.223 45.7485 365.217 47.1982 365.963 49.1036C366.708 50.9261 367.288 52.9971 367.702 55.3167C368.117 57.6362 368.407 60.08 368.572 62.6481C368.821 65.1334 368.987 67.5772 369.069 69.9796C369.152 72.2991 369.194 74.453 369.194 76.4412C369.276 78.3465 369.442 79.9205 369.691 81.1631C370.022 82.9856 370.602 84.5596 371.43 85.8851C372.259 87.1277 373.17 88.2046 374.164 89.1159C375.158 89.9443 376.152 90.607 377.146 91.1041C378.14 91.6011 379.01 91.9739 379.756 92.2224C380.253 92.471 380.709 92.6366 381.123 92.7195C381.951 93.0508 382.531 93.0508 382.862 92.7195C382.365 93.8793 381.91 94.8734 381.496 95.7018C381.081 96.5302 380.75 97.2343 380.501 97.8142C380.17 98.4769 379.88 99.0154 379.632 99.4296C379.383 99.9267 379.093 100.382 378.762 100.796C378.513 101.211 378.182 101.666 377.768 102.163C377.353 102.66 376.939 103.199 376.525 103.779C375.448 103.365 374.413 102.868 373.419 102.288C372.507 101.708 371.679 101.169 370.933 100.672C370.022 100.092 369.194 99.5125 368.448 98.9326C367.702 98.3527 366.998 97.69 366.336 96.9444C365.756 96.2817 365.134 95.5775 364.472 94.8319C363.892 94.0864 363.395 93.2579 362.981 92.3467C362.484 93.4236 361.282 94.9562 359.377 96.9444C357.554 98.9326 355.152 100.755 352.17 102.412C349.187 103.986 345.708 105.104 341.732 105.767C337.838 106.43 333.53 105.974 328.809 104.4C326.738 103.737 324.791 102.785 322.968 101.542C321.146 100.217 319.572 98.6426 318.246 96.8201C317.004 94.9976 316.092 92.9266 315.513 90.607C315.015 88.2046 315.057 85.5537 315.637 82.6543C316.217 79.7548 317.252 77.311 318.743 75.3228C320.234 73.3346 322.016 71.7192 324.087 70.4766C326.158 69.234 328.477 68.2813 331.045 67.6186C333.613 66.9559 336.264 66.5002 338.998 66.2517C341.152 66.1689 343.306 66.2931 345.46 66.6245C347.282 66.9559 349.187 67.5772 351.176 68.4884C353.164 69.3168 354.862 70.6009 356.27 72.3405C356.188 67.95 356.022 64.4706 355.773 61.9026C355.608 59.2516 355.442 57.222 355.276 55.8137C354.945 54.1569 354.655 52.9971 354.406 52.3344C353.992 51.7545 353.537 51.0918 353.04 50.3462C352.625 49.6006 352.087 48.9379 351.424 48.358C350.761 47.6953 349.933 47.1568 348.939 46.7426C347.945 46.3284 346.785 46.1627 345.46 46.2456C344.051 46.3284 342.933 46.7012 342.105 47.3639C341.276 48.0266 340.613 48.8136 340.116 49.7249C339.702 50.5533 339.454 51.4646 339.371 52.4587C339.288 53.4527 339.329 54.3226 339.495 55.0682C339.661 55.5652 339.909 56.1037 340.241 56.6836C340.572 57.1806 341.028 57.7191 341.608 58.299C342.187 58.8788 342.974 59.3759 343.968 59.7901C342.063 60.0386 340.365 60.2457 338.874 60.4114C337.383 60.4943 336.099 60.6185 335.022 60.7842C333.779 60.9499 332.702 61.0741 331.791 61.157C330.88 61.2398 329.803 61.4055 328.56 61.654C327.483 61.8197 326.158 62.0268 324.584 62.2753C323.01 62.5239 321.187 62.8552 319.116 63.2694C319.613 62.6895 320.069 62.1511 320.483 61.654C320.897 61.0741 321.27 60.5771 321.601 60.1629C321.933 59.6658 322.264 59.2102 322.595 58.796ZM341.235 73.5832C339.744 73.666 338.252 74.0388 336.761 74.7015C335.27 75.2814 333.945 76.1512 332.785 77.311C331.625 78.388 330.631 79.672 329.803 81.1631C329.057 82.5714 328.684 84.1454 328.684 85.8851C328.684 87.6247 329.098 89.1573 329.927 90.4828C330.838 91.7254 331.998 92.7609 333.406 93.5893C334.897 94.4177 336.471 94.9148 338.128 95.0805C339.868 95.2461 341.566 95.0805 343.223 94.5834C344.797 94.0035 346.288 93.0923 347.696 91.8496C349.105 90.5242 350.306 89.1159 351.3 87.6247C352.294 86.0508 352.998 84.5182 353.412 83.0271C353.827 81.4531 353.868 80.169 353.537 79.1749C352.874 77.0211 351.383 75.5299 349.063 74.7015C346.744 73.7903 344.134 73.4175 341.235 73.5832ZM380.377 49.6006C381.951 49.6835 383.359 49.7249 384.602 49.7249C385.928 49.6421 387.046 49.5592 387.957 49.4764C389.034 49.3935 389.987 49.3107 390.815 49.2278C392.058 49.0622 393.342 48.8551 394.667 48.6065C395.827 48.4409 397.028 48.2338 398.271 47.9852C399.596 47.6539 400.88 47.2811 402.123 46.8669C401.626 48.1095 401.212 49.1864 400.88 50.0977C400.549 51.0089 400.301 51.7959 400.135 52.4587C399.886 53.2042 399.762 53.8255 399.762 54.3226C399.679 54.9025 399.638 55.6066 399.638 56.435C399.555 57.8433 399.555 60.1215 399.638 63.2694C403.946 59.5416 407.549 56.6421 410.449 54.5711C413.431 52.5001 415.792 50.8847 417.531 49.7249C419.603 48.3994 421.218 47.5296 422.378 47.1154C425.443 46.6183 428.135 47.3225 430.455 49.2278C431.449 50.0563 432.401 51.1746 433.313 52.5829C434.224 53.9084 435.011 55.6895 435.674 57.9262C436.336 60.1629 436.833 62.8552 437.165 66.0032C437.496 69.0683 437.538 72.7547 437.289 77.0625C435.549 77.2282 433.975 77.3939 432.567 77.5595C431.242 77.7252 430.123 77.8495 429.212 77.9323C428.135 78.098 427.141 78.1808 426.23 78.1808L422.875 78.5536C421.715 78.7193 420.265 78.885 418.526 79.0507C416.869 79.1335 414.839 79.2992 412.437 79.5477C415.916 76.7311 418.153 74.2873 419.147 72.2163C420.224 70.0624 420.679 68.2813 420.514 66.873C420.348 65.299 419.603 63.9322 418.277 62.7724C416.703 61.8611 415.005 61.5298 413.182 61.7783C411.608 61.944 409.786 62.6481 407.715 63.8907C405.644 65.1334 403.448 67.4529 401.129 70.8494C401.295 76.1512 401.46 80.5418 401.626 84.0212C401.874 87.5005 402.082 90.3171 402.247 92.471C402.496 94.9562 402.703 96.903 402.869 98.3113C403.117 99.5539 403.614 100.879 404.36 102.288C404.94 103.447 405.768 104.731 406.845 106.14C407.922 107.548 409.33 108.956 411.07 110.365C407.425 110.199 404.443 110.199 402.123 110.365C400.715 110.447 399.472 110.53 398.395 110.613C397.235 110.779 395.993 110.945 394.667 111.11C393.508 111.276 392.141 111.442 390.567 111.607C389.076 111.856 387.419 112.104 385.596 112.353C386.259 111.442 386.797 110.365 387.212 109.122C387.626 107.962 387.957 106.844 388.206 105.767C388.537 104.524 388.786 103.24 388.951 101.915C389.034 100.755 389.076 99.0154 389.076 96.6959C389.158 94.3763 389.117 91.7668 388.951 88.8674C388.868 85.8851 388.744 82.82 388.578 79.672C388.413 76.4412 388.206 73.4175 387.957 70.6009C387.709 67.7843 387.419 65.3405 387.087 63.2694C386.839 61.1156 386.549 59.6244 386.218 58.796C385.803 57.8019 385.306 56.8078 384.726 55.8137C384.229 54.9025 383.608 53.9498 382.862 52.9557C382.117 51.8788 381.288 50.7604 380.377 49.6006Z" fill="white"/>
<rect x="483.142" y="13.9173" width="11.9291" height="99.4094" fill="#F5A200"/>
<rect x="495.071" y="25.8465" width="11.9291" height="75.5512" fill="#F5A200"/>
</g>
<defs>
<filter id="filter0_d_417_14458" x="0.930722" y="0" width="507.139" height="132.59" filterUnits="userSpaceOnUse" color-interpolation-filters="sRGB">
<feFlood flood-opacity="0" result="BackgroundImageFix"/>
<feColorMatrix in="SourceAlpha" type="matrix" values="0 0 0 0 0 0 0 0 0 0 0 0 0 0 0 0 0 0 127 0" result="hardAlpha"/>
<feOffset dy="4.27711"/>
<feGaussianBlur stdDeviation="0.534639"/>
<feComposite in2="hardAlpha" operator="out"/>
<feColorMatrix type="matrix" values="0 0 0 0 1 0 0 0 0 1 0 0 0 0 1 0 0 0 0.25 0"/>
<feBlend mode="normal" in2="BackgroundImageFix" result="effect1_dropShadow_417_14458"/>
<feBlend mode="normal" in="SourceGraphic" in2="effect1_dropShadow_417_14458" result="shape"/>
</filter>
</defs>
</svg>
